<svg width="192" height="192" viewBox="0 0 192 192" fill="none" xmlns="http://www.w3.org/2000/svg">
<path fill-rule="evenodd" clip-rule="evenodd" d="M99.3922 9.28478C100.607 8.85614 101.941 8.91314 103.115 9.4439L165.838 37.798C167.111 38.3734 168.086 39.4556 168.525 40.782L184.747 89.757C185.116 90.8722 185.081 92.0818 184.648 93.1736L177.365 111.525L174.715 149.928C174.646 150.929 174.277 151.886 173.656 152.675L155.813 175.358C155.223 176.108 154.431 176.674 153.53 176.988L131.36 184.721C130.831 184.906 130.274 185 129.714 185H55.6354C54.668 185 53.7214 184.719 52.9102 184.192L41.3664 176.688L12.012 163.967C9.99276 163.092 8.78308 160.999 9.03236 158.813L11.69 135.502L9.00606 80.23C8.95212 79.119 9.27018 78.0218 9.90996 77.1118L42.8936 30.1988C43.4916 29.3482 44.34 28.7052 45.3206 28.3594L99.3922 9.28478ZM16.7038 135.665L14.0002 159.379L43.7396 172.267L55.6354 180H129.714L151.883 172.267L169.727 149.584L172.43 110.404L180 91.3292L163.779 42.354L101.056 14L46.9838 33.0746L14.0002 79.9876L16.7038 135.665Z" fill="#241E88"/>
<path d="M46.9838 33.0746L101.055 14L163.778 42.354L180 91.3292L172.43 110.404L169.726 149.584L151.883 172.267L129.713 180H55.6352L43.7394 172.267L14 159.379L16.7036 135.665L14 79.9876L46.9838 33.0746Z" fill="#6862CC"/>
<mask id="mask0_107_96" style="mask-type:alpha" maskUnits="userSpaceOnUse" x="14" y="14" width="166" height="166">
<path d="M46.9838 33.0746L101.055 14L163.778 42.354L180 91.3292L172.43 110.404L169.726 149.584L151.883 172.267L129.713 180H55.6352L43.7394 172.267L14 159.379L16.7036 135.665L14 79.9876L46.9838 33.0746Z" fill="#6862CC"/>
</mask>
<g mask="url(#mask0_107_96)">
<path d="M24.3718 85.0688L14.5156 79.8812L1.02812 103.225L-3.64062 163.4L21.7782 195.562L115.153 227.724L183.628 178.962L201.266 85.0688L163.397 40.4562V105.819L153.022 133.831L135.903 142.131L117.747 137.462L64.8344 154.581L30.0782 137.462L24.3718 85.0688Z" fill="#3D37A6"/>
<path d="M100.628 28.0062L168.584 59.65V28.0062L103.222 -11.9375L30.5968 14L9.32812 77.8062L24.8906 85.5876L54.4594 40.975L100.628 28.0062Z" fill="#A09AFF"/>
</g>
<path d="M100.614 155.288L104.82 148.423C105.364 147.535 106.697 147.683 107.032 148.67L109.82 156.866C109.932 157.197 110.18 157.464 110.5 157.601L116.944 160.356C117.896 160.763 117.949 162.093 117.033 162.575L108.708 166.956C108.531 167.049 108.378 167.185 108.265 167.351L103.398 174.48C102.812 175.34 101.49 175.128 101.201 174.128L98.8148 165.851C98.756 165.647 98.645 165.461 98.4926 165.313L91.5284 158.508C90.7702 157.768 91.242 156.479 92.2994 156.402L99.6534 155.872C100.049 155.844 100.406 155.626 100.614 155.288Z" fill="#B19E77"/>
<path fill-rule="evenodd" clip-rule="evenodd" d="M137.109 60.3804C143.529 69.914 145.727 81.227 144.315 92.8038C143.184 102.082 139.417 112.542 129.921 119.802C120.838 126.745 110.862 127.365 104.852 127.067C102.209 126.936 99.6266 126.582 97.3254 126.168C95.695 130.924 92.6244 135.237 88.2308 138.393C76.9712 146.482 61.2864 143.911 53.1976 132.652C43.2158 118.757 38.3252 102.597 40.4122 86.5644C42.521 70.3618 51.5618 56.3352 65.3688 47.5116C79.2772 38.623 98.384 37.2158 113.772 42.678C122.082 45.6278 130.881 51.1306 137.109 60.3804Z" fill="#FAEFD9"/>
<mask id="mask1_107_96" style="mask-type:alpha" maskUnits="userSpaceOnUse" x="39" y="39" width="106" height="105">
<path fill-rule="evenodd" clip-rule="evenodd" d="M137.109 60.3804C143.529 69.914 145.727 81.227 144.315 92.8038C143.184 102.082 139.417 112.542 129.921 119.802C120.838 126.745 110.862 127.365 104.852 127.067C102.209 126.936 99.6266 126.582 97.3254 126.168C95.695 130.924 92.6244 135.237 88.2308 138.393C76.9712 146.482 61.2864 143.911 53.1976 132.652C43.2158 118.757 38.3252 102.597 40.4122 86.5644C42.521 70.3618 51.5618 56.3352 65.3688 47.5116C79.2772 38.623 98.384 37.2158 113.772 42.678C122.082 45.6278 130.881 51.1306 137.109 60.3804Z" fill="#FAEFD9"/>
</mask>
<g mask="url(#mask1_107_96)">
<path fill-rule="evenodd" clip-rule="evenodd" d="M99.233 69.3912C94.9918 69.341 91.1662 70.7376 88.9668 72.4724C80.4126 79.219 78.7402 86.9964 79.9618 94.1132C81.2162 101.422 85.5694 108.146 89.249 112.171C90.1328 113.138 90.0594 114.633 89.0848 115.51C88.1104 116.387 86.6038 116.314 85.72 115.347C81.6574 110.903 76.7202 103.385 75.265 94.9068C73.7768 86.2362 75.9754 76.6798 86.0022 68.7716C89.1626 66.279 94.0914 64.6028 99.2896 64.6642C104.557 64.7262 110.269 66.5762 114.825 71.3628C117.77 74.4574 118.981 77.9722 118.745 81.3226C118.511 84.628 116.88 87.5786 114.503 89.62C112.121 91.665 108.922 92.8544 105.504 92.5406C102.053 92.224 98.6286 90.402 95.7572 86.8822C94.9294 85.8676 95.0872 84.3792 96.1098 83.5578C97.1324 82.7366 98.6324 82.8932 99.4602 83.9078C101.651 86.5928 103.959 87.6514 105.942 87.8334C107.958 88.0184 109.896 87.324 111.385 86.0452C112.879 84.7626 113.853 82.949 113.992 80.9916C114.127 79.0788 113.477 76.8324 111.361 74.6086C107.817 70.886 103.405 69.4404 99.233 69.3912Z" fill="#B29E77"/>
<path d="M98.6868 126.792C88.0462 120.845 80.4874 111.102 77.3496 101.689C76.6876 100.309 79.5066 94.8656 80.4874 96.0408C86.763 106.709 96.5506 116.123 109.983 116.123C125.959 116.123 137.567 103.771 143.273 94.0222C143.946 92.871 145.745 93.2912 145.614 94.6186C143.257 118.576 118.53 137.88 98.6868 126.792Z" fill="#B29E77"/>
<path d="M69.1935 134.322C57.6463 132.314 45.5551 116.332 40.9531 108.592C40.9531 133.067 51.6217 147.501 75.4691 148.756C94.5473 149.76 98.4799 132.44 98.0617 123.654C93.2503 128.047 80.7407 136.331 69.1935 134.322Z" fill="#B29E77"/>
<path d="M50.3673 92.2754C40.3263 96.794 38.2343 86.209 38.4435 80.3516C52.2501 35.1668 99.3175 28.2636 115.634 36.422C131.951 44.5804 124.42 55.249 118.144 59.0144C111.869 62.7798 103.083 48.9734 83.0009 55.249C59.7809 62.5052 62.9187 86.6274 50.3673 92.2754Z" fill="#FFFBF3"/>
<path d="M128.184 64.6626C128.686 59.642 134.25 57.5502 136.97 57.1318C143.246 62.5706 153.663 74.8292 145.128 80.3516C134.46 87.2548 127.556 70.9382 128.184 64.6626Z" fill="#FFFBF3"/>
<path fill-rule="evenodd" clip-rule="evenodd" d="M91.0277 96.786C93.1293 94.03 97.0673 93.4992 99.8235 95.6008C99.8413 95.6144 99.8593 95.6282 99.8773 95.642C102.141 97.369 106.663 100.818 114.135 97.9158C117.366 96.661 121.003 98.263 122.257 101.494C123.512 104.725 121.91 108.361 118.679 109.616C104.648 115.065 95.1713 107.838 92.2499 105.61C92.2375 105.6 92.2251 105.591 92.2129 105.582C89.4569 103.48 88.9263 99.5422 91.0277 96.786Z" fill="#FFFBF3"/>
</g>
<path d="M128.757 140.812L118.601 146.737C117.845 147.177 117.941 148.297 118.759 148.604L128.579 152.287C128.939 152.422 129.195 152.745 129.244 153.126L130.952 166.362C131.065 167.239 132.154 167.581 132.748 166.927L141.252 157.573C141.479 157.324 141.813 157.2 142.148 157.242L152.522 158.538C153.256 158.63 153.847 157.946 153.651 157.233L150.004 144.015C149.946 143.802 149.956 143.576 150.035 143.37L153.437 134.439C153.719 133.7 153.103 132.931 152.321 133.043L143.55 134.296C143.305 134.331 143.055 134.277 142.846 134.144L133.045 127.907C132.428 127.514 131.608 127.867 131.47 128.586L129.253 140.112C129.196 140.406 129.016 140.662 128.757 140.812Z" fill="#FAEFD9"/>
<path d="M128.757 140.812L118.601 146.737C117.845 147.177 117.941 148.297 118.759 148.605L128.579 152.287C128.939 152.422 129.195 152.745 129.244 153.126L130.952 166.362C131.065 167.239 132.154 167.582 132.748 166.927L141.252 157.573C141.479 157.324 141.813 157.2 142.148 157.242L152.522 158.539C153.256 158.63 153.847 157.946 153.651 157.233L150.004 144.015C149.946 143.802 149.956 143.576 150.035 143.37L153.437 134.439C153.598 134.017 153.466 133.585 153.177 133.312L153.026 133.831L135.908 142.131L129.164 140.377C129.075 140.557 128.934 140.709 128.757 140.812Z" fill="#B19E77"/>
<path fill-rule="evenodd" clip-rule="evenodd" d="M136.539 142.388C136.002 141.181 136.547 139.643 137.756 138.951L142.862 136.029C144.071 135.337 145.487 135.754 146.024 136.96C146.56 138.166 146.015 139.705 144.806 140.397L139.7 143.319C138.491 144.011 137.075 143.594 136.539 142.388Z" fill="#FFFBF3"/>
</svg>
