<svg width="384" height="384" viewBox="0 0 384 384" fill="none" xmlns="http://www.w3.org/2000/svg">
<path fill-rule="evenodd" clip-rule="evenodd" d="M198.784 18.5696C201.215 17.7123 203.882 17.8263 206.23 18.8878L331.676 75.596C334.223 76.7468 336.172 78.9112 337.05 81.564L369.493 179.514C370.232 181.744 370.162 184.164 369.295 186.347L354.73 223.049L349.43 299.856C349.291 301.858 348.554 303.773 347.313 305.35L311.626 350.717C310.446 352.217 308.861 353.348 307.059 353.976L262.72 369.442C261.662 369.812 260.548 370 259.427 370H111.271C109.336 370 107.443 369.439 105.82 368.384L82.7328 353.376L24.024 327.933C19.9855 326.183 17.5662 321.998 18.0647 317.625L23.3799 271.003L18.0121 160.46C17.9042 158.238 18.5404 156.044 19.8199 154.224L85.7872 60.3976C86.9832 58.6964 88.68 57.4104 90.6412 56.7188L198.784 18.5696ZM33.4075 271.329L28.0004 318.758L87.4792 344.534L111.271 360H259.427L303.766 344.534L339.453 299.168L344.86 220.808L360 182.658L327.557 84.708L202.111 28L93.9676 66.1492L28.0004 159.975L33.4075 271.329Z" fill="#241E88"/>
<path d="M93.9676 66.1492L202.111 28L327.557 84.708L360 182.658L344.86 220.808L339.453 299.168L303.766 344.534L259.427 360H111.27L87.4788 344.534L28 318.758L33.4072 271.329L28 159.975L93.9676 66.1492Z" fill="#6862CC"/>
<mask id="mask0_107_395" style="mask-type:alpha" maskUnits="userSpaceOnUse" x="28" y="28" width="332" height="332">
<path d="M93.9676 66.1492L202.111 28L327.557 84.708L360 182.658L344.86 220.808L339.453 299.168L303.766 344.534L259.427 360H111.27L87.4788 344.534L28 318.758L33.4072 271.329L28 159.975L93.9676 66.1492Z" fill="#6862CC"/>
</mask>
<g mask="url(#mask0_107_395)">
<path d="M48.7436 170.138L29.0312 159.762L2.05624 206.45L-7.28125 326.8L43.5564 391.125L230.306 455.448L367.256 357.925L402.532 170.138L326.794 80.9124V211.638L306.044 267.662L271.806 284.262L235.494 274.925L129.669 309.162L60.1564 274.925L48.7436 170.138Z" fill="#3D37A6"/>
<path d="M201.256 56.0124L337.169 119.3V56.0124L206.444 -23.875L61.1936 28L18.6562 155.612L49.7812 171.175L108.919 81.95L201.256 56.0124Z" fill="#A09AFF"/>
</g>
<path d="M201.231 310.576L209.643 296.846C210.732 295.07 213.398 295.367 214.069 297.339L219.643 313.732C219.868 314.393 220.363 314.927 221.005 315.202L233.892 320.712C235.796 321.527 235.903 324.186 234.07 325.15L217.42 333.911C217.065 334.098 216.761 334.37 216.534 334.701L206.801 348.961C205.627 350.68 202.983 350.255 202.407 348.256L197.633 331.703C197.516 331.294 197.294 330.922 196.989 330.625L183.061 317.017C181.544 315.535 182.488 312.957 184.603 312.805L199.311 311.744C200.102 311.687 200.817 311.252 201.231 310.576Z" fill="#B19E77"/>
<path fill-rule="evenodd" clip-rule="evenodd" d="M274.218 120.761C287.058 139.828 291.454 162.454 288.631 185.608C286.368 204.164 278.834 225.084 259.842 239.603C241.676 253.49 221.723 254.73 209.704 254.134C204.419 253.871 199.253 253.163 194.651 252.337C191.39 261.848 185.249 270.473 176.462 276.786C153.942 292.963 122.573 287.822 106.395 265.303C86.4316 237.513 76.6504 205.194 80.8244 173.129C85.042 140.724 103.124 112.67 130.738 95.0232C158.554 77.246 196.768 74.4316 227.544 85.356C244.164 91.2556 261.761 102.261 274.218 120.761Z" fill="#FAEFD9"/>
<mask id="mask1_107_395" style="mask-type:alpha" maskUnits="userSpaceOnUse" x="79" y="78" width="211" height="209">
<path fill-rule="evenodd" clip-rule="evenodd" d="M274.218 120.761C287.058 139.828 291.454 162.454 288.631 185.608C286.368 204.164 278.834 225.084 259.842 239.603C241.676 253.49 221.723 254.73 209.704 254.134C204.419 253.871 199.253 253.163 194.651 252.337C191.39 261.848 185.249 270.473 176.462 276.786C153.942 292.963 122.573 287.822 106.395 265.303C86.4316 237.513 76.6504 205.194 80.8244 173.129C85.042 140.724 103.124 112.67 130.738 95.0232C158.554 77.246 196.768 74.4316 227.544 85.356C244.164 91.2556 261.761 102.261 274.218 120.761Z" fill="#FAEFD9"/>
</mask>
<g mask="url(#mask1_107_395)">
<path fill-rule="evenodd" clip-rule="evenodd" d="M198.466 138.782C189.984 138.682 182.332 141.475 177.934 144.945C160.825 158.438 157.48 173.993 159.924 188.226C162.432 202.844 171.139 216.292 178.498 224.342C180.266 226.276 180.119 229.266 178.17 231.02C176.221 232.774 173.208 232.628 171.44 230.694C163.315 221.806 153.44 206.77 150.53 189.814C147.554 172.472 151.951 153.36 172.004 137.543C178.325 132.558 188.183 129.206 198.579 129.328C209.114 129.452 220.537 133.152 229.649 142.726C235.54 148.915 237.963 155.944 237.489 162.645C237.022 169.256 233.76 175.157 229.005 179.24C224.242 183.33 217.844 185.709 211.007 185.081C204.106 184.448 197.257 180.804 191.514 173.764C189.859 171.735 190.174 168.758 192.22 167.116C194.265 165.473 197.265 165.786 198.92 167.816C203.301 173.186 207.917 175.303 211.884 175.667C215.916 176.037 219.791 174.648 222.77 172.09C225.758 169.525 227.707 165.898 227.984 161.983C228.254 158.158 226.955 153.665 222.722 149.217C215.635 141.772 206.81 138.881 198.466 138.782Z" fill="#B29E77"/>
<path d="M197.374 253.583C176.092 241.691 160.975 222.205 154.699 203.378C153.375 200.618 159.013 189.731 160.975 192.082C173.526 213.419 193.101 232.246 219.966 232.246C251.919 232.246 275.134 207.542 286.546 188.044C287.893 185.742 291.49 186.582 291.228 189.237C286.514 237.151 237.06 275.761 197.374 253.583Z" fill="#B29E77"/>
<path d="M138.387 268.645C115.293 264.628 91.1103 232.664 81.9062 217.184C81.9062 266.134 103.243 295.002 150.938 297.513C189.095 299.521 196.96 264.879 196.123 247.308C186.501 256.093 161.481 272.661 138.387 268.645Z" fill="#B29E77"/>
<path d="M100.735 184.551C80.6525 193.588 76.4685 172.418 76.8869 160.703C104.5 70.3336 198.635 56.5272 231.269 72.844C263.902 89.1608 248.841 110.498 236.289 118.029C223.738 125.56 206.166 97.9468 166.002 110.498C119.562 125.01 125.837 173.255 100.735 184.551Z" fill="#FFFBF3"/>
<path d="M256.372 129.325C257.376 119.284 268.505 115.1 273.944 114.264C286.495 125.141 307.33 149.658 290.26 160.703C268.923 174.51 255.117 141.876 256.372 129.325Z" fill="#FFFBF3"/>
<path fill-rule="evenodd" clip-rule="evenodd" d="M182.051 193.572C186.255 188.06 194.131 186.998 199.643 191.202C199.679 191.229 199.715 191.256 199.751 191.284C204.279 194.738 213.322 201.636 228.267 195.832C234.729 193.322 242.001 196.526 244.511 202.988C247.02 209.449 243.816 216.722 237.355 219.232C209.293 230.13 190.339 215.676 184.496 211.22C184.471 211.201 184.446 211.182 184.422 211.163C178.91 206.96 177.849 199.084 182.051 193.572Z" fill="#FFFBF3"/>
</g>
<path d="M257.514 281.625L237.202 293.474C235.691 294.355 235.881 296.595 237.518 297.209L257.158 304.574C257.878 304.844 258.39 305.489 258.488 306.251L261.904 332.724C262.13 334.478 264.307 335.163 265.497 333.854L282.504 315.147C282.958 314.647 283.626 314.4 284.296 314.484L305.044 317.077C306.512 317.26 307.695 315.892 307.301 314.466L300.009 288.03C299.891 287.604 299.913 287.152 300.07 286.74L306.874 268.878C307.437 267.401 306.207 265.862 304.642 266.086L287.1 268.591C286.61 268.661 286.111 268.554 285.693 268.288L266.091 255.814C264.855 255.027 263.216 255.734 262.939 257.172L258.506 280.224C258.393 280.812 258.031 281.323 257.514 281.625Z" fill="#FAEFD9"/>
<path d="M257.514 281.625L237.202 293.474C235.691 294.355 235.881 296.595 237.518 297.209L257.158 304.574C257.878 304.844 258.39 305.489 258.488 306.251L261.904 332.724C262.13 334.478 264.307 335.163 265.497 333.854L282.504 315.147C282.958 314.647 283.626 314.4 284.296 314.484L305.044 317.077C306.512 317.26 307.695 315.892 307.301 314.466L300.009 288.03C299.891 287.605 299.913 287.152 300.07 286.74L306.874 268.878C307.196 268.034 306.932 267.169 306.354 266.625L306.053 267.662L271.816 284.262L258.328 280.753C258.15 281.114 257.868 281.418 257.514 281.625Z" fill="#B19E77"/>
<path fill-rule="evenodd" clip-rule="evenodd" d="M273.077 284.775C272.004 282.363 273.094 279.286 275.512 277.902L285.725 272.058C288.143 270.674 290.974 271.508 292.047 273.92C293.121 276.332 292.031 279.41 289.613 280.794L279.4 286.638C276.982 288.021 274.151 287.188 273.077 284.775Z" fill="#FFFBF3"/>
</svg>
