<svg width="512" height="512" viewBox="0 0 512 512" fill="none" xmlns="http://www.w3.org/2000/svg">
<path fill-rule="evenodd" clip-rule="evenodd" d="M265.046 24.7594C268.286 23.6164 271.843 23.7684 274.974 25.1837L442.235 100.795C445.63 102.329 448.229 105.215 449.4 108.752L492.658 239.352C493.643 242.326 493.549 245.551 492.394 248.463L472.973 297.399L465.906 399.808C465.722 402.478 464.738 405.03 463.084 407.134L415.501 467.622C413.927 469.622 411.815 471.13 409.412 471.969L350.294 492.589C348.882 493.082 347.398 493.333 345.903 493.333H148.361C145.781 493.333 143.257 492.585 141.094 491.179L110.31 471.168L32.032 437.244C26.6474 434.911 23.4215 429.331 24.0863 423.5L31.1732 361.338L24.0162 213.947C23.8723 210.984 24.7205 208.058 26.4266 205.631L114.383 80.5301C115.978 78.2619 118.24 76.5472 120.855 75.6251L265.046 24.7594ZM44.5434 361.772L37.3338 425.01L116.639 459.379L148.361 480H345.903L405.021 459.379L452.604 398.89L459.814 294.41L480.001 243.545L436.743 112.944L269.482 37.3333L125.29 88.1989L37.3338 213.3L44.5434 361.772Z" fill="#241E88"/>
<path d="M125.289 88.1989L269.48 37.3333L436.741 112.944L479.999 243.545L459.812 294.41L452.602 398.89L405.019 459.379L345.901 480H148.359L116.637 459.379L37.332 425.01L44.5416 361.772L37.332 213.3L125.289 88.1989Z" fill="#6862CC"/>
<mask id="mask0_107_419" style="mask-type:alpha" maskUnits="userSpaceOnUse" x="37" y="37" width="443" height="443">
<path d="M125.289 88.1989L269.48 37.3333L436.741 112.944L479.999 243.545L459.812 294.41L452.602 398.89L405.019 459.379L345.901 480H148.359L116.637 459.379L37.332 425.01L44.5416 361.772L37.332 213.3L125.289 88.1989Z" fill="#6862CC"/>
</mask>
<g mask="url(#mask0_107_419)">
<path d="M64.9888 226.85L38.7057 213.017L2.73905 275.267L-9.71094 435.733L58.0726 521.5L307.073 607.264L489.673 477.233L536.707 226.85L435.722 107.883V282.183L408.056 356.883L362.406 379.017L313.989 366.566L172.889 412.217L80.2059 366.566L64.9888 226.85Z" fill="#3D37A6"/>
<path d="M268.338 74.6832L449.554 159.067V74.6832L275.254 -31.8333L81.5876 37.3333L24.8711 207.483L66.371 228.234L145.221 109.267L268.338 74.6832Z" fill="#A09AFF"/>
</g>
<path d="M268.305 414.101L279.522 395.795C280.973 393.426 284.528 393.822 285.422 396.452L292.855 418.31C293.155 419.191 293.815 419.903 294.67 420.269L311.853 427.617C314.392 428.702 314.534 432.247 312.091 433.533L289.891 445.215C289.417 445.465 289.012 445.826 288.71 446.268L275.732 465.281C274.167 467.573 270.641 467.007 269.873 464.341L263.509 442.27C263.352 441.725 263.056 441.23 262.649 440.834L244.078 422.689C242.056 420.714 243.315 417.276 246.134 417.073L265.745 415.659C266.8 415.583 267.753 415.003 268.305 414.101Z" fill="#B19E77"/>
<path fill-rule="evenodd" clip-rule="evenodd" d="M365.624 161.014C382.743 186.437 388.606 216.605 384.841 247.477C381.823 272.219 371.779 300.113 346.455 319.471C322.234 337.987 295.631 339.641 279.605 338.845C272.558 338.495 265.671 337.551 259.534 336.449C255.187 349.13 246.998 360.631 235.282 369.048C205.256 390.618 163.43 383.763 141.86 353.738C115.242 316.684 102.2 273.593 107.766 230.838C113.389 187.631 137.498 150.227 174.317 126.698C211.406 102.995 262.357 99.2421 303.391 113.808C325.551 121.674 349.015 136.348 365.624 161.014Z" fill="#FAEFD9"/>
<mask id="mask1_107_419" style="mask-type:alpha" maskUnits="userSpaceOnUse" x="106" y="105" width="280" height="277">
<path fill-rule="evenodd" clip-rule="evenodd" d="M365.624 161.014C382.743 186.437 388.606 216.605 384.841 247.477C381.823 272.219 371.779 300.113 346.455 319.471C322.234 337.987 295.631 339.641 279.605 338.845C272.558 338.495 265.671 337.551 259.534 336.449C255.187 349.13 246.998 360.631 235.282 369.048C205.256 390.618 163.43 383.763 141.86 353.738C115.242 316.684 102.2 273.593 107.766 230.838C113.389 187.631 137.498 150.227 174.317 126.698C211.406 102.995 262.357 99.2421 303.391 113.808C325.551 121.674 349.015 136.348 365.624 161.014Z" fill="#FAEFD9"/>
</mask>
<g mask="url(#mask1_107_419)">
<path fill-rule="evenodd" clip-rule="evenodd" d="M264.624 185.043C253.314 184.909 243.112 188.634 237.247 193.26C214.436 211.251 209.976 231.99 213.234 250.969C216.579 270.459 228.188 288.389 238 299.123C240.357 301.702 240.161 305.688 237.562 308.027C234.964 310.365 230.946 310.171 228.589 307.593C217.756 295.741 204.59 275.694 200.709 253.085C196.741 229.963 202.604 204.479 229.342 183.391C237.77 176.744 250.913 172.274 264.775 172.438C278.821 172.603 294.052 177.537 306.202 190.301C314.056 198.553 317.286 207.926 316.655 216.86C316.031 225.675 311.683 233.543 305.343 238.987C298.992 244.44 290.462 247.612 281.346 246.775C272.143 245.931 263.012 241.072 255.355 231.686C253.148 228.98 253.568 225.011 256.295 222.821C259.022 220.631 263.022 221.049 265.23 223.754C271.071 230.914 277.226 233.737 282.515 234.222C287.89 234.716 293.058 232.864 297.029 229.454C301.013 226.034 303.612 221.197 303.981 215.978C304.342 210.877 302.609 204.886 296.965 198.956C287.516 189.029 275.749 185.174 264.624 185.043Z" fill="#B29E77"/>
<path d="M263.165 338.111C234.79 322.254 214.633 296.273 206.266 271.171C204.5 267.49 212.018 252.975 214.633 256.109C231.368 284.558 257.468 309.661 293.288 309.661C335.892 309.661 366.846 276.722 382.061 250.726C383.857 247.656 388.653 248.777 388.304 252.316C382.019 316.202 316.079 367.681 263.165 338.111Z" fill="#B29E77"/>
<path d="M184.519 358.193C153.726 352.838 121.483 310.219 109.211 289.579C109.211 354.846 137.661 393.337 201.254 396.684C252.129 399.361 262.616 353.172 261.501 329.743C248.67 341.458 215.311 363.548 184.519 358.193Z" fill="#B29E77"/>
<path d="M134.314 246.068C107.538 258.117 101.959 229.891 102.517 214.271C139.335 93.7781 264.848 75.3696 308.359 97.1253C351.871 118.881 331.789 147.331 315.053 157.372C298.318 167.413 274.889 130.596 221.337 147.331C159.417 166.681 167.784 231.006 134.314 246.068Z" fill="#FFFBF3"/>
<path d="M341.828 172.434C343.167 159.045 358.005 153.467 365.257 152.351C381.992 166.855 409.773 199.545 387.013 214.271C358.563 232.679 340.154 189.169 341.828 172.434Z" fill="#FFFBF3"/>
<path fill-rule="evenodd" clip-rule="evenodd" d="M242.737 258.096C248.341 250.747 258.842 249.331 266.192 254.935C266.239 254.972 266.287 255.009 266.335 255.045C272.373 259.651 284.431 268.847 304.357 261.109C312.973 257.763 322.67 262.035 326.016 270.65C329.362 279.266 325.09 288.963 316.474 292.309C279.058 306.839 253.786 287.567 245.996 281.626C245.963 281.601 245.93 281.576 245.897 281.551C238.548 275.947 237.133 265.446 242.737 258.096Z" fill="#FFFBF3"/>
</g>
<path d="M343.351 375.5L316.268 391.298C314.253 392.473 314.507 395.46 316.69 396.278L342.877 406.099C343.836 406.458 344.518 407.319 344.649 408.335L349.204 443.631C349.505 445.971 352.408 446.884 353.994 445.139L376.67 420.196C377.276 419.53 378.167 419.199 379.061 419.311L406.724 422.769C408.681 423.014 410.258 421.19 409.734 419.288L400.01 384.04C399.854 383.473 399.882 382.87 400.092 382.319L409.165 358.505C409.915 356.534 408.274 354.483 406.188 354.781L382.799 358.122C382.145 358.215 381.48 358.071 380.922 357.717L354.786 341.085C353.139 340.036 350.953 340.979 350.584 342.897L344.673 373.633C344.522 374.417 344.04 375.098 343.351 375.5Z" fill="#FAEFD9"/>
<path d="M343.351 375.5L316.268 391.298C314.253 392.473 314.507 395.46 316.69 396.279L342.877 406.099C343.836 406.459 344.518 407.319 344.649 408.335L349.204 443.632C349.505 445.971 352.408 446.884 353.994 445.139L376.67 420.196C377.276 419.53 378.167 419.2 379.061 419.311L406.724 422.77C408.681 423.014 410.258 421.19 409.734 419.289L400.01 384.041C399.854 383.473 399.882 382.87 400.092 382.32L409.165 358.505C409.593 357.378 409.241 356.226 408.471 355.5L408.069 356.883L362.42 379.017L344.436 374.338C344.198 374.818 343.823 375.225 343.351 375.5Z" fill="#B19E77"/>
<path fill-rule="evenodd" clip-rule="evenodd" d="M364.106 379.7C362.674 376.484 364.128 372.381 367.352 370.536L380.969 362.743C384.193 360.899 387.968 362.01 389.399 365.227C390.831 368.443 389.377 372.546 386.153 374.391L372.536 382.183C369.312 384.028 365.537 382.917 364.106 379.7Z" fill="#FFFBF3"/>
</svg>
